<svg xmlns="http://www.w3.org/2000/svg" version="1.1" x="0" y="0" width="257.7" height="22.5" viewBox="88.7 271.3 257.7 22.5" enable-background="new 88.654 271.263 257.66 22.472" xml:space="preserve"><polygon points="228.9 293.7 236.7 276.1 244.7 293.7 247.3 293.7 236.7 271.3 226.4 293.7 "/><polygon points="234 293.7 236.8 287.3 239.4 293.7 241.6 293.7 236.8 281.2 231.6 293.7 "/><path d="M88.7 272.2h11.9v21.3h-11.8v-2.2h9.4v-6.8h-8.8v-2.2h8.8v-7.8h-9.4V272.2zM107.7 293.5V274.5h2.2v17h8.4v2H107.7zM134.1 293.5h-10.6V274.5h10.6v2h-8.4v6.1h7.9v2h-7.9v7h8.4V293.5zM148.5 276.2c-2.1 0-3.7 0.7-4.9 2.1s-1.8 3.3-1.8 5.7c0 2.5 0.6 4.4 1.8 5.8 1.2 1.4 2.8 2 5 2 1.3 0 2.8-0.2 4.5-0.7v1.9c-1.3 0.5-2.9 0.7-4.9 0.7 -2.8 0-5-0.8-6.5-2.5 -1.5-1.7-2.3-4.1-2.3-7.2 0-2 0.4-3.7 1.1-5.1 0.7-1.5 1.8-2.6 3.2-3.4 1.4-0.8 3-1.2 4.9-1.2 2 0 3.7 0.4 5.2 1.1l-0.9 1.9C151.4 276.5 149.9 276.2 148.5 276.2zM165 293.5h-2.2v-17.1h-6v-2h14.3v2h-6V293.5zM178.1 285.6v7.9h-2.2V274.5h5.2c2.3 0 4.1 0.4 5.2 1.3 1.1 0.9 1.7 2.2 1.7 4 0 2.5-1.3 4.2-3.8 5.1l5.2 8.5h-2.6l-4.6-7.9H178.1zM178.1 283.7h3c1.6 0 2.7-0.3 3.4-0.9 0.7-0.6 1.1-1.5 1.1-2.8 0-1.3-0.4-2.2-1.1-2.7 -0.7-0.6-1.9-0.8-3.6-0.8h-2.9V283.7zM194.4 293.5V274.5h2.2v19H194.4zM211.9 276.2c-2.1 0-3.7 0.7-4.9 2.1 -1.2 1.4-1.8 3.3-1.8 5.7 0 2.5 0.6 4.4 1.8 5.8 1.2 1.4 2.8 2 5 2 1.3 0 2.8-0.2 4.5-0.7v1.9c-1.3 0.5-2.9 0.7-4.9 0.7 -2.8 0-5-0.8-6.5-2.5 -1.5-1.7-2.3-4.1-2.3-7.2 0-2 0.4-3.7 1.1-5.1 0.7-1.5 1.8-2.6 3.2-3.4 1.4-0.8 3-1.2 4.9-1.2 2 0 3.7 0.4 5.2 1.1l-0.9 1.9C214.8 276.5 213.4 276.2 211.9 276.2zM258.7 283.5h6.5v9.2c-1 0.3-2 0.6-3.1 0.7 -1 0.2-2.2 0.2-3.6 0.2 -2.9 0-5.1-0.9-6.7-2.6 -1.6-1.7-2.4-4.1-2.4-7.2 0-2 0.4-3.7 1.2-5.2s1.9-2.6 3.4-3.4c1.5-0.8 3.2-1.2 5.2-1.2 2 0 3.9 0.4 5.7 1.1l-0.9 2c-1.7-0.7-3.4-1.1-5-1.1 -2.3 0-4.1 0.7-5.4 2.1 -1.3 1.4-2 3.3-2 5.7 0 2.6 0.6 4.5 1.9 5.8 1.3 1.3 3.1 2 5.5 2 1.3 0 2.6-0.2 3.9-0.5v-5.9h-4.3V283.5zM282.4 293.5h-10.6V274.5h10.6v2h-8.4v6.1h7.9v2h-7.9v7h8.4V293.5zM303.4 293.5h-2.5l-10.4-16h-0.1c0.1 1.9 0.2 3.6 0.2 5.2v10.8h-2V274.5h2.5l10.4 15.9h0.1c0-0.2-0.1-1-0.1-2.3 -0.1-1.3-0.1-2.2-0.1-2.7V274.5h2.1V293.5zM325.8 283.8c0 3.1-0.9 5.5-2.6 7.2 -1.7 1.7-4.2 2.5-7.4 2.5h-5.3V274.5h5.8c3 0 5.3 0.8 6.9 2.5S325.8 280.8 325.8 283.8zM323.5 283.9c0-2.5-0.6-4.3-1.9-5.6 -1.2-1.3-3.1-1.9-5.5-1.9h-3.2v15.2h2.7c2.6 0 4.6-0.6 5.9-1.9S323.5 286.4 323.5 283.9zM344 293.5l-2.4-6h-7.6l-2.3 6h-2.2l7.5-19.1h1.9l7.5 19.1H344zM341 285.4l-2.2-5.9c-0.3-0.7-0.6-1.7-0.9-2.7 -0.2 0.8-0.5 1.7-0.8 2.7l-2.2 5.9H341z"/></svg>